<mxfile host="app.diagrams.net" modified="2023-12-29T07:09:31.472Z" agent="Mozilla/5.0 (Windows NT 10.0; Win64; x64) AppleWebKit/537.36 (KHTML, like Gecko) Chrome/120.0.0.0 Safari/537.36" etag="7dxv0HpTWi_VIN6aEyqw" version="22.1.15" type="github">
  <diagram id="QMqiZ2GDBsnpyi7WLgiz" name="Page-1">
    <mxGraphModel dx="3304" dy="1277" grid="1" gridSize="10" guides="1" tooltips="1" connect="1" arrows="1" fold="1" page="1" pageScale="1" pageWidth="827" pageHeight="1169" math="0" shadow="0">
      <root>
        <mxCell id="0" />
        <mxCell id="1" parent="0" />
        <mxCell id="o_0oddXOF23FKvagfJal-9" value="" style="rounded=0;whiteSpace=wrap;html=1;fillColor=#E1E9FF;strokeColor=#E6E6E6;gradientDirection=south;sketch=0;fontColor=#333333;fontFamily=阿里巴巴普惠体;" parent="1" vertex="1">
          <mxGeometry x="-320" y="130" width="1160" height="890" as="geometry" />
        </mxCell>
        <mxCell id="ZttovpieoR-79sJcMYOA-3" value="" style="rounded=1;whiteSpace=wrap;html=1;fontSize=14;strokeColor=none;arcSize=0;shadow=0;opacity=80;fontFamily=阿里巴巴普惠体;sketch=0;glass=0;" parent="1" vertex="1">
          <mxGeometry x="-290" y="160" width="1100" height="70" as="geometry" />
        </mxCell>
        <mxCell id="ZttovpieoR-79sJcMYOA-4" value="用户层" style="text;html=1;strokeColor=none;fillColor=none;align=center;verticalAlign=middle;whiteSpace=wrap;rounded=0;fontSize=16;fontStyle=1;fontColor=#4D4D4D;fontFamily=阿里巴巴普惠体;" parent="1" vertex="1">
          <mxGeometry x="-261.61" y="180" width="102.5" height="30" as="geometry" />
        </mxCell>
        <mxCell id="ZttovpieoR-79sJcMYOA-5" value="业务人员" style="rounded=1;whiteSpace=wrap;html=1;fontSize=14;arcSize=0;fontStyle=1;fontFamily=Helvetica;strokeColor=#007FFF;fontColor=#287EF5;" parent="1" vertex="1">
          <mxGeometry x="-130" y="176" width="120" height="38" as="geometry" />
        </mxCell>
        <mxCell id="ZttovpieoR-79sJcMYOA-8" value="财务人员" style="rounded=1;whiteSpace=wrap;html=1;fontSize=14;arcSize=4;fontStyle=1;fontFamily=Helvetica;strokeColor=#007FFF;fontColor=#287EF5;" parent="1" vertex="1">
          <mxGeometry x="48" y="176" width="120" height="38" as="geometry" />
        </mxCell>
        <mxCell id="ZttovpieoR-79sJcMYOA-16" value="" style="rounded=1;whiteSpace=wrap;html=1;fontSize=14;arcSize=0;shadow=0;glass=0;sketch=0;opacity=80;container=0;fontFamily=阿里巴巴普惠体;strokeColor=none;" parent="1" vertex="1">
          <mxGeometry x="-290" y="355" width="160" height="315" as="geometry" />
        </mxCell>
        <mxCell id="ZttovpieoR-79sJcMYOA-63" value="" style="rounded=0;whiteSpace=wrap;html=1;fontFamily=阿里巴巴普惠体;fontSize=18;strokeWidth=1;strokeColor=none;" parent="1" vertex="1">
          <mxGeometry x="-290" y="699" width="1100" height="181" as="geometry" />
        </mxCell>
        <mxCell id="ZttovpieoR-79sJcMYOA-68" value="业务数据" style="text;html=1;strokeColor=none;fillColor=none;align=center;verticalAlign=middle;whiteSpace=wrap;rounded=0;fontSize=18;fontStyle=1;fontColor=#4D4D4D;fontFamily=阿里巴巴普惠体;" parent="1" vertex="1">
          <mxGeometry x="-280" y="769.99" width="120" height="30.01" as="geometry" />
        </mxCell>
        <mxCell id="ZttovpieoR-79sJcMYOA-17" value="合同管理机器人" style="text;html=1;strokeColor=none;fillColor=none;align=center;verticalAlign=middle;whiteSpace=wrap;rounded=0;fontSize=16;fontColor=#4D4D4D;fontStyle=1;fontFamily=阿里巴巴普惠体;" parent="1" vertex="1">
          <mxGeometry x="-270.5" y="369.58" width="119.27" height="30" as="geometry" />
        </mxCell>
        <mxCell id="MdFNAgGWL3GxQWSpr4tQ-2" value="合同智能起草" style="rounded=1;whiteSpace=wrap;html=1;fontSize=14;arcSize=4;fontStyle=0;fontFamily=阿里巴巴普惠体;strokeColor=#d6b656;fillColor=#fff2cc;" parent="1" vertex="1">
          <mxGeometry x="-261.6129411764706" y="420.00333333333333" width="101.49882352941177" height="34.412" as="geometry" />
        </mxCell>
        <mxCell id="9BalmKLf0Tfa42KLOofF-3" value="机&lt;br style=&quot;font-size: 24px;&quot;&gt;器&lt;br style=&quot;font-size: 24px;&quot;&gt;人&lt;br style=&quot;font-size: 24px;&quot;&gt;用&lt;br style=&quot;font-size: 24px;&quot;&gt;工&lt;br style=&quot;font-size: 24px;&quot;&gt;平&lt;br style=&quot;font-size: 24px;&quot;&gt;台" style="rounded=1;whiteSpace=wrap;html=1;fontSize=24;arcSize=0;shadow=0;fontFamily=阿里巴巴普惠体;sketch=0;glass=0;fillColor=#287EF5;strokeColor=#6c8ebf;gradientColor=none;fontColor=#FFFFFF;" parent="1" vertex="1">
          <mxGeometry x="-390" y="130" width="70" height="890" as="geometry" />
        </mxCell>
        <mxCell id="1G_qjWxplky9GHR5EYdk-2" value="行政人员" style="rounded=1;whiteSpace=wrap;html=1;fontSize=14;arcSize=4;fontStyle=1;fontFamily=Helvetica;strokeColor=#007FFF;fontColor=#287EF5;" parent="1" vertex="1">
          <mxGeometry x="225" y="176" width="120" height="38" as="geometry" />
        </mxCell>
        <mxCell id="1G_qjWxplky9GHR5EYdk-3" value="运维人员" style="rounded=1;whiteSpace=wrap;html=1;fontSize=14;arcSize=4;fontStyle=1;fontFamily=Helvetica;strokeColor=#007FFF;fontColor=#287EF5;" parent="1" vertex="1">
          <mxGeometry x="403" y="176" width="120" height="38" as="geometry" />
        </mxCell>
        <mxCell id="1G_qjWxplky9GHR5EYdk-4" value="HR" style="rounded=1;whiteSpace=wrap;html=1;fontSize=14;arcSize=4;fontStyle=1;fontFamily=Helvetica;strokeColor=#007FFF;fontColor=#287EF5;" parent="1" vertex="1">
          <mxGeometry x="580" y="176" width="120" height="38" as="geometry" />
        </mxCell>
        <mxCell id="1G_qjWxplky9GHR5EYdk-5" value="" style="rounded=1;whiteSpace=wrap;html=1;fontSize=14;strokeColor=none;arcSize=0;shadow=0;opacity=80;fontFamily=阿里巴巴普惠体;sketch=0;glass=0;" parent="1" vertex="1">
          <mxGeometry x="-290" y="250" width="1100" height="70" as="geometry" />
        </mxCell>
        <mxCell id="1G_qjWxplky9GHR5EYdk-6" value="场景层" style="text;html=1;strokeColor=none;fillColor=none;align=center;verticalAlign=middle;whiteSpace=wrap;rounded=0;fontSize=16;fontStyle=1;fontColor=#4D4D4D;fontFamily=阿里巴巴普惠体;" parent="1" vertex="1">
          <mxGeometry x="-261.61" y="270" width="102.5" height="30" as="geometry" />
        </mxCell>
        <mxCell id="1G_qjWxplky9GHR5EYdk-7" value="流程设计" style="rounded=1;whiteSpace=wrap;html=1;fontSize=14;arcSize=0;fontStyle=1;fontFamily=Helvetica;strokeColor=#007FFF;fontColor=#287EF5;" parent="1" vertex="1">
          <mxGeometry x="-130" y="266" width="120" height="38" as="geometry" />
        </mxCell>
        <mxCell id="1G_qjWxplky9GHR5EYdk-8" value="任务管理" style="rounded=1;whiteSpace=wrap;html=1;fontSize=14;arcSize=4;fontStyle=1;fontFamily=Helvetica;strokeColor=#007FFF;fontColor=#287EF5;" parent="1" vertex="1">
          <mxGeometry x="48" y="266" width="120" height="38" as="geometry" />
        </mxCell>
        <mxCell id="1G_qjWxplky9GHR5EYdk-9" value="测试审批" style="rounded=1;whiteSpace=wrap;html=1;fontSize=14;arcSize=4;fontStyle=1;fontFamily=Helvetica;strokeColor=#007FFF;fontColor=#287EF5;" parent="1" vertex="1">
          <mxGeometry x="225" y="266" width="120" height="38" as="geometry" />
        </mxCell>
        <mxCell id="1G_qjWxplky9GHR5EYdk-10" value="数字员工管理" style="rounded=1;whiteSpace=wrap;html=1;fontSize=14;arcSize=4;fontStyle=1;fontFamily=Helvetica;strokeColor=#007FFF;fontColor=#287EF5;" parent="1" vertex="1">
          <mxGeometry x="403" y="266" width="120" height="38" as="geometry" />
        </mxCell>
        <mxCell id="1G_qjWxplky9GHR5EYdk-11" value="工作汇报" style="rounded=1;whiteSpace=wrap;html=1;fontSize=14;arcSize=4;fontStyle=1;fontFamily=Helvetica;strokeColor=#007FFF;fontColor=#287EF5;" parent="1" vertex="1">
          <mxGeometry x="580" y="266" width="120" height="38" as="geometry" />
        </mxCell>
        <mxCell id="1G_qjWxplky9GHR5EYdk-13" value="服务层" style="shape=hexagon;perimeter=hexagonPerimeter2;whiteSpace=wrap;html=1;fixedSize=1;fontSize=16;strokeColor=none;fillColor=#fff2cc;size=20;textOpacity=50;gradientColor=#ffd966;opacity=50;" parent="1" vertex="1">
          <mxGeometry x="192.91" y="350" width="140.91" height="129.17" as="geometry" />
        </mxCell>
        <mxCell id="1G_qjWxplky9GHR5EYdk-14" value="服务层" style="shape=hexagon;perimeter=hexagonPerimeter2;whiteSpace=wrap;html=1;fixedSize=1;fontSize=16;strokeColor=#FFB570;fillColor=#f5f5f5;size=20;fontStyle=1;fontColor=#333333;" parent="1" vertex="1">
          <mxGeometry x="205.85999999999999" y="361.87" width="115" height="105.42" as="geometry" />
        </mxCell>
        <mxCell id="1G_qjWxplky9GHR5EYdk-16" value="合同智能起草" style="rounded=1;whiteSpace=wrap;html=1;fontSize=14;arcSize=4;fontStyle=0;fontFamily=阿里巴巴普惠体;strokeColor=#d6b656;fillColor=#fff2cc;" parent="1" vertex="1">
          <mxGeometry x="-261.6129411764706" y="465.5933333333333" width="101.49882352941177" height="34.412" as="geometry" />
        </mxCell>
        <mxCell id="1G_qjWxplky9GHR5EYdk-17" value="合同智能审批" style="rounded=1;whiteSpace=wrap;html=1;fontSize=14;arcSize=4;fontStyle=0;fontFamily=阿里巴巴普惠体;strokeColor=#d6b656;fillColor=#fff2cc;" parent="1" vertex="1">
          <mxGeometry x="-261.6129411764706" y="514.5933333333334" width="101.49882352941177" height="34.412" as="geometry" />
        </mxCell>
        <mxCell id="1G_qjWxplky9GHR5EYdk-18" value="合同智能比对" style="rounded=1;whiteSpace=wrap;html=1;fontSize=14;arcSize=4;fontStyle=0;fontFamily=阿里巴巴普惠体;strokeColor=#d6b656;fillColor=#fff2cc;" parent="1" vertex="1">
          <mxGeometry x="-261.6129411764706" y="562.8033333333334" width="101.49882352941177" height="34.412" as="geometry" />
        </mxCell>
        <mxCell id="1G_qjWxplky9GHR5EYdk-19" value="合同智能履约" style="rounded=1;whiteSpace=wrap;html=1;fontSize=14;arcSize=4;fontStyle=0;fontFamily=阿里巴巴普惠体;strokeColor=#d6b656;fillColor=#fff2cc;" parent="1" vertex="1">
          <mxGeometry x="-261.6129411764706" y="612.5933333333334" width="101.49882352941177" height="34.412" as="geometry" />
        </mxCell>
        <mxCell id="1G_qjWxplky9GHR5EYdk-20" value="" style="rounded=1;whiteSpace=wrap;html=1;fontSize=14;arcSize=0;shadow=0;glass=0;sketch=0;opacity=80;container=0;fontFamily=阿里巴巴普惠体;strokeColor=none;" parent="1" vertex="1">
          <mxGeometry x="-90" y="355" width="160" height="315" as="geometry" />
        </mxCell>
        <mxCell id="1G_qjWxplky9GHR5EYdk-21" value="业务助理机器人" style="text;html=1;strokeColor=none;fillColor=none;align=center;verticalAlign=middle;whiteSpace=wrap;rounded=0;fontSize=16;fontColor=#4D4D4D;fontStyle=1;fontFamily=阿里巴巴普惠体;" parent="1" vertex="1">
          <mxGeometry x="-70.5" y="369.58" width="119.27" height="30" as="geometry" />
        </mxCell>
        <mxCell id="1G_qjWxplky9GHR5EYdk-22" value="业务数据采集" style="rounded=1;whiteSpace=wrap;html=1;fontSize=14;arcSize=4;fontStyle=0;fontFamily=阿里巴巴普惠体;strokeColor=#d6b656;fillColor=#fff2cc;" parent="1" vertex="1">
          <mxGeometry x="-61.6129411764706" y="420.00333333333333" width="101.49882352941177" height="34.412" as="geometry" />
        </mxCell>
        <mxCell id="1G_qjWxplky9GHR5EYdk-23" value="数据结构化" style="rounded=1;whiteSpace=wrap;html=1;fontSize=14;arcSize=4;fontStyle=0;fontFamily=阿里巴巴普惠体;strokeColor=#d6b656;fillColor=#fff2cc;" parent="1" vertex="1">
          <mxGeometry x="-61.6129411764706" y="465.5933333333333" width="101.49882352941177" height="34.412" as="geometry" />
        </mxCell>
        <mxCell id="1G_qjWxplky9GHR5EYdk-24" value="智能辅助决策" style="rounded=1;whiteSpace=wrap;html=1;fontSize=14;arcSize=4;fontStyle=0;fontFamily=阿里巴巴普惠体;strokeColor=#d6b656;fillColor=#fff2cc;" parent="1" vertex="1">
          <mxGeometry x="-61.6129411764706" y="514.5933333333334" width="101.49882352941177" height="34.412" as="geometry" />
        </mxCell>
        <mxCell id="1G_qjWxplky9GHR5EYdk-25" value="运营报告生成" style="rounded=1;whiteSpace=wrap;html=1;fontSize=14;arcSize=4;fontStyle=0;fontFamily=阿里巴巴普惠体;strokeColor=#d6b656;fillColor=#fff2cc;" parent="1" vertex="1">
          <mxGeometry x="-61.6129411764706" y="562.8033333333334" width="101.49882352941177" height="34.412" as="geometry" />
        </mxCell>
        <mxCell id="1G_qjWxplky9GHR5EYdk-26" value="合同智能履约" style="rounded=1;whiteSpace=wrap;html=1;fontSize=14;arcSize=4;fontStyle=0;fontFamily=阿里巴巴普惠体;strokeColor=#d6b656;fillColor=#fff2cc;" parent="1" vertex="1">
          <mxGeometry x="-61.6129411764706" y="612.5933333333334" width="101.49882352941177" height="34.412" as="geometry" />
        </mxCell>
        <mxCell id="0h7H6QFIkBvaYsDnCxvT-1" value="" style="rounded=1;whiteSpace=wrap;html=1;fontSize=14;arcSize=0;shadow=0;glass=0;sketch=0;opacity=80;container=0;fontFamily=阿里巴巴普惠体;strokeColor=none;" vertex="1" parent="1">
          <mxGeometry x="142.91" y="535" width="240" height="135" as="geometry" />
        </mxCell>
        <mxCell id="0h7H6QFIkBvaYsDnCxvT-2" value="业务助理机器人" style="text;html=1;strokeColor=none;fillColor=none;align=center;verticalAlign=middle;whiteSpace=wrap;rounded=0;fontSize=16;fontColor=#4D4D4D;fontStyle=1;fontFamily=阿里巴巴普惠体;" vertex="1" parent="1">
          <mxGeometry x="203.77" y="540" width="119.27" height="30" as="geometry" />
        </mxCell>
        <mxCell id="0h7H6QFIkBvaYsDnCxvT-3" value="基础数据识别" style="rounded=1;whiteSpace=wrap;html=1;fontSize=14;arcSize=4;fontStyle=0;fontFamily=阿里巴巴普惠体;strokeColor=#d6b656;fillColor=#fff2cc;" vertex="1" parent="1">
          <mxGeometry x="157.1570588235294" y="576.2833333333333" width="101.49882352941177" height="34.412" as="geometry" />
        </mxCell>
        <mxCell id="0h7H6QFIkBvaYsDnCxvT-4" value="基础数据识别" style="rounded=1;whiteSpace=wrap;html=1;fontSize=14;arcSize=4;fontStyle=0;fontFamily=阿里巴巴普惠体;strokeColor=#d6b656;fillColor=#fff2cc;" vertex="1" parent="1">
          <mxGeometry x="272.9070588235294" y="575.9933333333333" width="101.49882352941177" height="34.412" as="geometry" />
        </mxCell>
        <mxCell id="0h7H6QFIkBvaYsDnCxvT-5" value="" style="shape=flexArrow;endArrow=classic;html=1;rounded=0;entryX=0.75;entryY=0;entryDx=0;entryDy=0;strokeColor=#ff7a75;fillColor=#f8cecc;" edge="1" parent="1">
          <mxGeometry width="50" height="50" relative="1" as="geometry">
            <mxPoint x="263.2" y="490" as="sourcePoint" />
            <mxPoint x="263.5125000000002" y="529.01" as="targetPoint" />
          </mxGeometry>
        </mxCell>
        <mxCell id="0h7H6QFIkBvaYsDnCxvT-6" value="" style="shape=flexArrow;endArrow=classic;html=1;rounded=0;entryX=0.75;entryY=0;entryDx=0;entryDy=0;strokeColor=#ff7a75;fillColor=#f8cecc;exitX=0.148;exitY=0.921;exitDx=0;exitDy=0;exitPerimeter=0;" edge="1" parent="1">
          <mxGeometry width="50" height="50" relative="1" as="geometry">
            <mxPoint x="172.91000000000025" y="430.00182" as="sourcePoint" />
            <mxPoint x="123.25250000000023" y="430.05" as="targetPoint" />
          </mxGeometry>
        </mxCell>
        <mxCell id="0h7H6QFIkBvaYsDnCxvT-7" value="" style="shape=flexArrow;endArrow=classic;html=1;rounded=0;entryX=0.75;entryY=0;entryDx=0;entryDy=0;strokeColor=#ff7a75;fillColor=#f8cecc;exitX=0.923;exitY=0.671;exitDx=0;exitDy=0;exitPerimeter=0;" edge="1" parent="1">
          <mxGeometry width="50" height="50" relative="1" as="geometry">
            <mxPoint x="352.9699300000001" y="429.67307000000005" as="sourcePoint" />
            <mxPoint x="402.91250000000025" y="429.73" as="targetPoint" />
          </mxGeometry>
        </mxCell>
        <mxCell id="0h7H6QFIkBvaYsDnCxvT-8" value="数据分析" style="rounded=1;whiteSpace=wrap;html=1;fontSize=14;arcSize=4;fontStyle=0;fontFamily=阿里巴巴普惠体;strokeColor=#d6b656;fillColor=#fff2cc;" vertex="1" parent="1">
          <mxGeometry x="157.1570588235294" y="620.9933333333333" width="101.49882352941177" height="34.412" as="geometry" />
        </mxCell>
        <mxCell id="0h7H6QFIkBvaYsDnCxvT-9" value="智能预警" style="rounded=1;whiteSpace=wrap;html=1;fontSize=14;arcSize=4;fontStyle=0;fontFamily=阿里巴巴普惠体;strokeColor=#d6b656;fillColor=#fff2cc;" vertex="1" parent="1">
          <mxGeometry x="272.9070588235294" y="620.9933333333333" width="101.49882352941177" height="34.412" as="geometry" />
        </mxCell>
        <mxCell id="0h7H6QFIkBvaYsDnCxvT-10" value="" style="rounded=1;whiteSpace=wrap;html=1;fontSize=14;arcSize=0;shadow=0;glass=0;sketch=0;opacity=80;container=0;fontFamily=阿里巴巴普惠体;strokeColor=none;" vertex="1" parent="1">
          <mxGeometry x="460" y="355" width="160" height="315" as="geometry" />
        </mxCell>
        <mxCell id="0h7H6QFIkBvaYsDnCxvT-11" value="IT运维机器人" style="text;html=1;strokeColor=none;fillColor=none;align=center;verticalAlign=middle;whiteSpace=wrap;rounded=0;fontSize=16;fontColor=#4D4D4D;fontStyle=1;fontFamily=阿里巴巴普惠体;" vertex="1" parent="1">
          <mxGeometry x="479.5" y="369.58" width="119.27" height="30" as="geometry" />
        </mxCell>
        <mxCell id="0h7H6QFIkBvaYsDnCxvT-12" value="系统数据同步" style="rounded=1;whiteSpace=wrap;html=1;fontSize=14;arcSize=4;fontStyle=0;fontFamily=阿里巴巴普惠体;strokeColor=#d6b656;fillColor=#fff2cc;" vertex="1" parent="1">
          <mxGeometry x="488.3870588235294" y="420.00333333333333" width="101.49882352941177" height="34.412" as="geometry" />
        </mxCell>
        <mxCell id="0h7H6QFIkBvaYsDnCxvT-13" value="系统安全监控" style="rounded=1;whiteSpace=wrap;html=1;fontSize=14;arcSize=4;fontStyle=0;fontFamily=阿里巴巴普惠体;strokeColor=#d6b656;fillColor=#fff2cc;" vertex="1" parent="1">
          <mxGeometry x="488.3870588235294" y="483" width="101.49882352941177" height="34.412" as="geometry" />
        </mxCell>
        <mxCell id="0h7H6QFIkBvaYsDnCxvT-14" value="应用自动发布" style="rounded=1;whiteSpace=wrap;html=1;fontSize=14;arcSize=4;fontStyle=0;fontFamily=阿里巴巴普惠体;strokeColor=#d6b656;fillColor=#fff2cc;" vertex="1" parent="1">
          <mxGeometry x="488.3870588235294" y="547" width="101.49882352941177" height="34.412" as="geometry" />
        </mxCell>
        <mxCell id="0h7H6QFIkBvaYsDnCxvT-15" value="系统日志诊断" style="rounded=1;whiteSpace=wrap;html=1;fontSize=14;arcSize=4;fontStyle=0;fontFamily=阿里巴巴普惠体;strokeColor=#d6b656;fillColor=#fff2cc;" vertex="1" parent="1">
          <mxGeometry x="488.3870588235294" y="610.0033333333334" width="101.49882352941177" height="34.412" as="geometry" />
        </mxCell>
        <mxCell id="0h7H6QFIkBvaYsDnCxvT-17" value="" style="rounded=1;whiteSpace=wrap;html=1;fontSize=14;arcSize=0;shadow=0;glass=0;sketch=0;opacity=80;container=0;fontFamily=阿里巴巴普惠体;strokeColor=none;" vertex="1" parent="1">
          <mxGeometry x="650" y="355" width="160" height="315" as="geometry" />
        </mxCell>
        <mxCell id="0h7H6QFIkBvaYsDnCxvT-18" value="财务助理机器人" style="text;html=1;strokeColor=none;fillColor=none;align=center;verticalAlign=middle;whiteSpace=wrap;rounded=0;fontSize=16;fontColor=#4D4D4D;fontStyle=1;fontFamily=阿里巴巴普惠体;" vertex="1" parent="1">
          <mxGeometry x="669.5" y="369.58" width="119.27" height="30" as="geometry" />
        </mxCell>
        <mxCell id="0h7H6QFIkBvaYsDnCxvT-19" value="发票开具审核" style="rounded=1;whiteSpace=wrap;html=1;fontSize=14;arcSize=4;fontStyle=0;fontFamily=阿里巴巴普惠体;strokeColor=#d6b656;fillColor=#fff2cc;" vertex="1" parent="1">
          <mxGeometry x="678.3870588235294" y="420.00333333333333" width="101.49882352941177" height="34.412" as="geometry" />
        </mxCell>
        <mxCell id="0h7H6QFIkBvaYsDnCxvT-20" value="费用报销审核" style="rounded=1;whiteSpace=wrap;html=1;fontSize=14;arcSize=4;fontStyle=0;fontFamily=阿里巴巴普惠体;strokeColor=#d6b656;fillColor=#fff2cc;" vertex="1" parent="1">
          <mxGeometry x="678.3870588235294" y="465.5933333333333" width="101.49882352941177" height="34.412" as="geometry" />
        </mxCell>
        <mxCell id="0h7H6QFIkBvaYsDnCxvT-21" value="票据处理" style="rounded=1;whiteSpace=wrap;html=1;fontSize=14;arcSize=4;fontStyle=0;fontFamily=阿里巴巴普惠体;strokeColor=#d6b656;fillColor=#fff2cc;" vertex="1" parent="1">
          <mxGeometry x="678.3870588235294" y="514.5933333333334" width="101.49882352941177" height="34.412" as="geometry" />
        </mxCell>
        <mxCell id="0h7H6QFIkBvaYsDnCxvT-22" value="资金日报" style="rounded=1;whiteSpace=wrap;html=1;fontSize=14;arcSize=4;fontStyle=0;fontFamily=阿里巴巴普惠体;strokeColor=#d6b656;fillColor=#fff2cc;" vertex="1" parent="1">
          <mxGeometry x="678.3870588235294" y="562.8033333333334" width="101.49882352941177" height="34.412" as="geometry" />
        </mxCell>
        <mxCell id="0h7H6QFIkBvaYsDnCxvT-23" value="纳税申报" style="rounded=1;whiteSpace=wrap;html=1;fontSize=14;arcSize=4;fontStyle=0;fontFamily=阿里巴巴普惠体;strokeColor=#d6b656;fillColor=#fff2cc;" vertex="1" parent="1">
          <mxGeometry x="678.3870588235294" y="612.5933333333334" width="101.49882352941177" height="34.412" as="geometry" />
        </mxCell>
        <mxCell id="0h7H6QFIkBvaYsDnCxvT-24" value="RPA流程" style="text;html=1;strokeColor=none;fillColor=none;align=center;verticalAlign=middle;whiteSpace=wrap;rounded=0;fontSize=16;fontColor=#4D4D4D;fontStyle=1;fontFamily=阿里巴巴普惠体;" vertex="1" parent="1">
          <mxGeometry x="-72.07000000000001" y="711.6999999999999" width="119.27" height="30" as="geometry" />
        </mxCell>
        <mxCell id="0h7H6QFIkBvaYsDnCxvT-25" value="" style="rounded=1;whiteSpace=wrap;html=1;fontSize=14;arcSize=0;shadow=0;glass=0;sketch=0;opacity=80;container=0;fontFamily=阿里巴巴普惠体;strokeColor=#d6b656;fillColor=#fff2cc;" vertex="1" parent="1">
          <mxGeometry x="-160.11" y="751.79" width="295.36" height="105.5" as="geometry" />
        </mxCell>
        <mxCell id="pXwYT4CWtMP8QEXP_L0X-1" value="流程信息" style="rounded=1;whiteSpace=wrap;html=1;fontSize=13;arcSize=4;fontStyle=0;fontFamily=阿里巴巴普惠体;strokeColor=#D6D6D6;" parent="1" vertex="1">
          <mxGeometry x="-145.75" y="761.8199999999999" width="81" height="34.41" as="geometry" />
        </mxCell>
        <mxCell id="0h7H6QFIkBvaYsDnCxvT-27" value="流程步骤" style="rounded=1;whiteSpace=wrap;html=1;fontSize=13;arcSize=4;fontStyle=0;fontFamily=阿里巴巴普惠体;strokeColor=#D6D6D6;" vertex="1" parent="1">
          <mxGeometry x="-52.93" y="761.8199999999999" width="81" height="34.41" as="geometry" />
        </mxCell>
        <mxCell id="0h7H6QFIkBvaYsDnCxvT-28" value="命令与命令库" style="rounded=1;whiteSpace=wrap;html=1;fontSize=13;arcSize=4;fontStyle=0;fontFamily=阿里巴巴普惠体;strokeColor=#D6D6D6;" vertex="1" parent="1">
          <mxGeometry x="42.25" y="761.8199999999999" width="81" height="34.41" as="geometry" />
        </mxCell>
        <mxCell id="0h7H6QFIkBvaYsDnCxvT-29" value="流程块" style="rounded=1;whiteSpace=wrap;html=1;fontSize=13;arcSize=4;fontStyle=0;fontFamily=阿里巴巴普惠体;strokeColor=#D6D6D6;" vertex="1" parent="1">
          <mxGeometry x="-145.75" y="812.8799999999999" width="81" height="34.41" as="geometry" />
        </mxCell>
        <mxCell id="0h7H6QFIkBvaYsDnCxvT-30" value="审批记录" style="rounded=1;whiteSpace=wrap;html=1;fontSize=13;arcSize=4;fontStyle=0;fontFamily=阿里巴巴普惠体;strokeColor=#D6D6D6;" vertex="1" parent="1">
          <mxGeometry x="-52.93000000000001" y="812.8799999999999" width="81" height="34.41" as="geometry" />
        </mxCell>
        <mxCell id="0h7H6QFIkBvaYsDnCxvT-31" value="编辑记录" style="rounded=1;whiteSpace=wrap;html=1;fontSize=13;arcSize=4;fontStyle=0;fontFamily=阿里巴巴普惠体;strokeColor=#D6D6D6;" vertex="1" parent="1">
          <mxGeometry x="42.25" y="812.8799999999999" width="81" height="34.41" as="geometry" />
        </mxCell>
        <mxCell id="0h7H6QFIkBvaYsDnCxvT-32" value="RPA任务" style="text;html=1;strokeColor=none;fillColor=none;align=center;verticalAlign=middle;whiteSpace=wrap;rounded=0;fontSize=16;fontColor=#4D4D4D;fontStyle=1;fontFamily=阿里巴巴普惠体;" vertex="1" parent="1">
          <mxGeometry x="195.62" y="711.6999999999999" width="119.27" height="30" as="geometry" />
        </mxCell>
        <mxCell id="0h7H6QFIkBvaYsDnCxvT-33" value="" style="rounded=1;whiteSpace=wrap;html=1;fontSize=14;arcSize=0;shadow=0;glass=0;sketch=0;opacity=80;container=0;fontFamily=阿里巴巴普惠体;strokeColor=#d6b656;fillColor=#fff2cc;" vertex="1" parent="1">
          <mxGeometry x="155.25" y="751.79" width="200" height="105.5" as="geometry" />
        </mxCell>
        <mxCell id="0h7H6QFIkBvaYsDnCxvT-34" value="任务信息" style="rounded=1;whiteSpace=wrap;html=1;fontSize=13;arcSize=4;fontStyle=0;fontFamily=阿里巴巴普惠体;strokeColor=#D6D6D6;" vertex="1" parent="1">
          <mxGeometry x="169.61" y="761.8199999999999" width="81" height="34.41" as="geometry" />
        </mxCell>
        <mxCell id="0h7H6QFIkBvaYsDnCxvT-35" value="运行配置" style="rounded=1;whiteSpace=wrap;html=1;fontSize=13;arcSize=4;fontStyle=0;fontFamily=阿里巴巴普惠体;strokeColor=#D6D6D6;" vertex="1" parent="1">
          <mxGeometry x="262.43" y="761.8199999999999" width="81" height="34.41" as="geometry" />
        </mxCell>
        <mxCell id="0h7H6QFIkBvaYsDnCxvT-37" value="任务记录" style="rounded=1;whiteSpace=wrap;html=1;fontSize=13;arcSize=4;fontStyle=0;fontFamily=阿里巴巴普惠体;strokeColor=#D6D6D6;" vertex="1" parent="1">
          <mxGeometry x="169.61" y="812.8799999999999" width="81" height="34.41" as="geometry" />
        </mxCell>
        <mxCell id="0h7H6QFIkBvaYsDnCxvT-38" value="运行成果" style="rounded=1;whiteSpace=wrap;html=1;fontSize=13;arcSize=4;fontStyle=0;fontFamily=阿里巴巴普惠体;strokeColor=#D6D6D6;" vertex="1" parent="1">
          <mxGeometry x="262.43" y="812.8799999999999" width="81" height="34.41" as="geometry" />
        </mxCell>
        <mxCell id="0h7H6QFIkBvaYsDnCxvT-40" value="数字员工" style="text;html=1;strokeColor=none;fillColor=none;align=center;verticalAlign=middle;whiteSpace=wrap;rounded=0;fontSize=16;fontColor=#4D4D4D;fontStyle=1;fontFamily=阿里巴巴普惠体;" vertex="1" parent="1">
          <mxGeometry x="415.62" y="711.6999999999999" width="119.27" height="30" as="geometry" />
        </mxCell>
        <mxCell id="0h7H6QFIkBvaYsDnCxvT-41" value="" style="rounded=1;whiteSpace=wrap;html=1;fontSize=14;arcSize=0;shadow=0;glass=0;sketch=0;opacity=80;container=0;fontFamily=阿里巴巴普惠体;strokeColor=#d6b656;fillColor=#fff2cc;" vertex="1" parent="1">
          <mxGeometry x="375.25" y="751.79" width="200" height="105.5" as="geometry" />
        </mxCell>
        <mxCell id="0h7H6QFIkBvaYsDnCxvT-42" value="基本信息" style="rounded=1;whiteSpace=wrap;html=1;fontSize=13;arcSize=4;fontStyle=0;fontFamily=阿里巴巴普惠体;strokeColor=#D6D6D6;" vertex="1" parent="1">
          <mxGeometry x="389.61" y="761.8199999999999" width="81" height="34.41" as="geometry" />
        </mxCell>
        <mxCell id="0h7H6QFIkBvaYsDnCxvT-43" value="岗位信息" style="rounded=1;whiteSpace=wrap;html=1;fontSize=13;arcSize=4;fontStyle=0;fontFamily=阿里巴巴普惠体;strokeColor=#D6D6D6;" vertex="1" parent="1">
          <mxGeometry x="482.43000000000006" y="761.8199999999999" width="81" height="34.41" as="geometry" />
        </mxCell>
        <mxCell id="0h7H6QFIkBvaYsDnCxvT-44" value="任务列表" style="rounded=1;whiteSpace=wrap;html=1;fontSize=13;arcSize=4;fontStyle=0;fontFamily=阿里巴巴普惠体;strokeColor=#D6D6D6;" vertex="1" parent="1">
          <mxGeometry x="389.61" y="812.8799999999999" width="81" height="34.41" as="geometry" />
        </mxCell>
        <mxCell id="0h7H6QFIkBvaYsDnCxvT-45" value="工作成果" style="rounded=1;whiteSpace=wrap;html=1;fontSize=13;arcSize=4;fontStyle=0;fontFamily=阿里巴巴普惠体;strokeColor=#D6D6D6;" vertex="1" parent="1">
          <mxGeometry x="482.43000000000006" y="812.8799999999999" width="81" height="34.41" as="geometry" />
        </mxCell>
        <mxCell id="0h7H6QFIkBvaYsDnCxvT-46" value="工作汇报" style="text;html=1;strokeColor=none;fillColor=none;align=center;verticalAlign=middle;whiteSpace=wrap;rounded=0;fontSize=16;fontColor=#4D4D4D;fontStyle=1;fontFamily=阿里巴巴普惠体;" vertex="1" parent="1">
          <mxGeometry x="620.73" y="711.6999999999999" width="119.27" height="30" as="geometry" />
        </mxCell>
        <mxCell id="0h7H6QFIkBvaYsDnCxvT-47" value="" style="rounded=1;whiteSpace=wrap;html=1;fontSize=14;arcSize=0;shadow=0;glass=0;sketch=0;opacity=80;container=0;fontFamily=阿里巴巴普惠体;strokeColor=#d6b656;fillColor=#fff2cc;" vertex="1" parent="1">
          <mxGeometry x="590" y="751.79" width="200" height="105.5" as="geometry" />
        </mxCell>
        <mxCell id="0h7H6QFIkBvaYsDnCxvT-48" value="订阅信息" style="rounded=1;whiteSpace=wrap;html=1;fontSize=13;arcSize=4;fontStyle=0;fontFamily=阿里巴巴普惠体;strokeColor=#D6D6D6;" vertex="1" parent="1">
          <mxGeometry x="604.36" y="761.8199999999999" width="81" height="34.41" as="geometry" />
        </mxCell>
        <mxCell id="0h7H6QFIkBvaYsDnCxvT-49" value="汇报模板" style="rounded=1;whiteSpace=wrap;html=1;fontSize=13;arcSize=4;fontStyle=0;fontFamily=阿里巴巴普惠体;strokeColor=#D6D6D6;" vertex="1" parent="1">
          <mxGeometry x="697.1800000000001" y="761.8199999999999" width="81" height="34.41" as="geometry" />
        </mxCell>
        <mxCell id="0h7H6QFIkBvaYsDnCxvT-50" value="任务统计" style="rounded=1;whiteSpace=wrap;html=1;fontSize=13;arcSize=4;fontStyle=0;fontFamily=阿里巴巴普惠体;strokeColor=#D6D6D6;" vertex="1" parent="1">
          <mxGeometry x="604.36" y="812.8799999999999" width="81" height="34.41" as="geometry" />
        </mxCell>
        <mxCell id="0h7H6QFIkBvaYsDnCxvT-51" value="汇报记录" style="rounded=1;whiteSpace=wrap;html=1;fontSize=13;arcSize=4;fontStyle=0;fontFamily=阿里巴巴普惠体;strokeColor=#D6D6D6;" vertex="1" parent="1">
          <mxGeometry x="697.1800000000001" y="812.8799999999999" width="81" height="34.41" as="geometry" />
        </mxCell>
        <mxCell id="0h7H6QFIkBvaYsDnCxvT-52" value="" style="rounded=0;whiteSpace=wrap;html=1;fontFamily=阿里巴巴普惠体;fontSize=18;strokeWidth=1;strokeColor=none;" vertex="1" parent="1">
          <mxGeometry x="-290" y="909" width="1100" height="81" as="geometry" />
        </mxCell>
        <mxCell id="0h7H6QFIkBvaYsDnCxvT-53" value="外部服务" style="text;html=1;strokeColor=none;fillColor=none;align=center;verticalAlign=middle;whiteSpace=wrap;rounded=0;fontSize=18;fontStyle=1;fontColor=#4D4D4D;fontFamily=阿里巴巴普惠体;" vertex="1" parent="1">
          <mxGeometry x="-278.11" y="934.5" width="120" height="30.01" as="geometry" />
        </mxCell>
        <mxCell id="0h7H6QFIkBvaYsDnCxvT-54" value="用户中心" style="rounded=1;whiteSpace=wrap;html=1;fontSize=14;arcSize=0;fontStyle=1;fontFamily=Helvetica;strokeColor=#d79b00;fillColor=#ffe6cc;fontColor=#424242;" vertex="1" parent="1">
          <mxGeometry x="-158.11" y="930.5" width="120" height="38" as="geometry" />
        </mxCell>
        <mxCell id="0h7H6QFIkBvaYsDnCxvT-60" value="文件服务" style="rounded=1;whiteSpace=wrap;html=1;fontSize=14;arcSize=0;fontStyle=1;fontFamily=Helvetica;strokeColor=#d79b00;fillColor=#ffe6cc;fontColor=#424242;" vertex="1" parent="1">
          <mxGeometry x="-10" y="930" width="120" height="38" as="geometry" />
        </mxCell>
        <mxCell id="0h7H6QFIkBvaYsDnCxvT-61" value="OA系统" style="rounded=1;whiteSpace=wrap;html=1;fontSize=14;arcSize=0;fontStyle=1;fontFamily=Helvetica;strokeColor=#d79b00;fillColor=#ffe6cc;fontColor=#424242;" vertex="1" parent="1">
          <mxGeometry x="138.66" y="929.5" width="120" height="38" as="geometry" />
        </mxCell>
        <mxCell id="0h7H6QFIkBvaYsDnCxvT-62" value="财务系统" style="rounded=1;whiteSpace=wrap;html=1;fontSize=14;arcSize=0;fontStyle=1;fontFamily=Helvetica;strokeColor=#d79b00;fillColor=#ffe6cc;fontColor=#424242;" vertex="1" parent="1">
          <mxGeometry x="283" y="929.5" width="120" height="38" as="geometry" />
        </mxCell>
        <mxCell id="0h7H6QFIkBvaYsDnCxvT-63" value="业务系统（公车、执法执勤）" style="rounded=1;whiteSpace=wrap;html=1;fontSize=14;arcSize=0;fontStyle=1;fontFamily=Helvetica;strokeColor=#d79b00;fillColor=#ffe6cc;fontColor=#424242;" vertex="1" parent="1">
          <mxGeometry x="430" y="929.5" width="320" height="38" as="geometry" />
        </mxCell>
      </root>
    </mxGraphModel>
  </diagram>
</mxfile>
